<?xml version="1.0" encoding="UTF-8"?><svg id="_" xmlns="http://www.w3.org/2000/svg" viewBox="0 0 904.28 118.55"><g><path d="M22.91,53.49c1.13,0,2.05,.92,2.12,2.12v7.35c0,1.13-.92,2.05-2.12,2.12h0c-1.13,0-2.05-.92-2.12-2.12v-7.35c.07-1.2,.99-2.12,2.12-2.12h0Z" style="fill:#a8975f;"/><path d="M57.63,2.51c-9.62,6.22-9.48,17.96-6.51,24.75-9.48-5.8-22.91-.85-26.16,8.63-4.17,12.23,7.85,15.34,11.6,11.17,2.05-2.33,1.7-4.38,.57-5.94,3.61-5.16,16.76-11.24,20.58-.21,.99,11.31-11.46,15.13-14.42,15.13-3.11,0-3.68-2.12-5.3-3.18s-5.23,3.54-7.92,3.54-12.09-.07-13.72,0c-1.56,0-2.12-2.97-2.12-2.97-3.68-6.93-7.85,2.62-14.21,5.87,6.29,3.18,10.47,12.73,14.21,5.87,0,0,.49-3.04,2.12-2.97,1.56,0,11.03,0,13.72,0,2.69,0,6.29,4.6,7.92,3.54,1.63-1.06,2.05-3.18,5.3-3.18,2.97,0,15.41,3.82,14.42,15.13-3.89,11.1-16.9,5.02-20.58-.21,1.13-1.56,1.56-3.54-.57-5.94-3.68-4.24-15.77-1.06-11.6,11.17,3.32,9.4,16.69,14.42,26.16,8.63-2.97,6.79-3.18,18.46,6.51,24.75,9.76,6.36,26.16-.14,23.83-12.37-2.05-10.96-9.05-8.49-10.82-4.6-.57,1.27-.21,2.9,.49,4.17-6.15,4.17-12.23,2.9-14.64,.07-3.68-4.38-3.04-11.1-2.4-14.28,1.41-1.41,2.76-3.18,3.75-5.3,7.85-15.91-8.41-24.4-12.09-24.4,3.68,0,19.94-8.49,12.09-24.4-1.06-2.19-2.33-3.89-3.75-5.3-.64-3.18-1.27-9.9,2.4-14.28,2.47-2.9,8.49-4.1,14.64,.07-.78,1.2-1.13,2.83-.49,4.17,1.77,3.89,8.77,6.36,10.82-4.6,2.33-12.37-14.07-18.88-23.83-12.52Zm14.78,102.18c.85,.71,1.91,.92,2.69,.42-9.4,13.08-20.58,4.17-22.77-1.13-2.12-5.23-.92-10.54,.42-13.86,.14-.14,.28-.28,.49-.35-3.61,21.85,13.93,18.74,19.16,14.92Zm-38.47-24.75c.57-.28,1.34-.78,2.05-1.34,4.6,6.72,14.42,8.63,19.3,5.59-5.73,7.14-19.59,4.31-21.35-4.24Zm21.35-45.54c-4.88-3.04-14.71-1.13-19.3,5.59-.71-.57-1.48-1.06-2.05-1.34,1.7-8.63,15.56-11.46,21.35-4.24Zm19.8-20.93c-.92-.49-1.84-.28-2.69,.42-5.3-3.89-22.77-6.93-19.16,14.92-.14-.14-.28-.28-.49-.35-1.34-3.32-2.62-8.7-.42-13.86,2.19-5.3,13.36-14.21,22.77-1.13Z" style="fill:#a8975f;"/><path d="M64.13,32.06c.64,3.61,5.8,5.37,3.25,14.42-2.47,8.98-10.47,11.31-10.39,12.8,0,1.41,7.92,3.82,10.39,12.8,2.47,8.98-2.62,10.82-3.25,14.42-1.06,6.15,8.63,10.75,13.65-1.77,5.09-12.59-6.86-22.84-15.49-25.39,8.63-2.55,20.51-12.73,15.49-25.39-4.95-12.73-14.71-8.06-13.65-1.91Zm-1.13,29.56c.92,.64,6.36,4.24,7.57,10.11,1.48,6.72-.21,12.94-2.19,15.63-1.27,1.84-2.12,1.27-2.12,1.41l.07,.07-.07-.07c-.64-.92-.78-1.77,.07-2.9,.78-1.2,4.74-6.72,2.26-14.57-2.19-6.86-5.66-8.49-6.65-9.33-.78-.78,.07-1.06,1.06-.35Zm3.39-31.96s-.07,.07,0,0c-.07,.21,.78-.35,2.05,1.48,1.84,2.69,3.68,8.91,2.19,15.63-1.27,5.94-6.65,9.48-7.57,10.11s-1.91,.35-.99-.42c.92-.78,4.45-2.47,6.65-9.33,2.4-7.78-1.48-13.36-2.26-14.57-.85-1.13-.78-1.91-.07-2.9h0Z" style="fill:#a8975f;"/><path d="M73.54,59.01c4.1-1.13,6.08-4.95,7.57-6.15,1.48-1.2,6.43,3.46,7.85,6.43-1.48,2.9-6.43,7.57-7.85,6.43-1.48-1.2-3.54-4.95-7.57-6.15v-.57Z" style="fill:#a8975f;"/></g><g><path d="M881.23,64.99c-1.13,0-2.05-.92-2.12-2.12v-7.35c0-1.13,.92-2.05,2.12-2.12h0c1.13,0,2.05,.92,2.12,2.12v7.35c.07,1.2-.92,2.19-2.12,2.12h0Z" style="fill:#a8975f;"/><path d="M846.58,116.04c9.62-6.22,9.48-17.96,6.51-24.75,9.48,5.8,22.91,.85,26.23-8.7,4.24-12.16-7.85-15.34-11.6-11.17-2.05,2.33-1.7,4.38-.57,5.94-3.61,5.16-16.76,11.24-20.58,.21-.99-11.31,11.46-15.13,14.42-15.13,3.11,0,3.68,2.12,5.3,3.18s5.23-3.54,7.92-3.54c2.69,0,12.02,0,13.72,0,1.56,0,2.12,2.97,2.12,2.97,3.68,6.93,7.92-2.69,14.21-5.87-6.29-3.18-10.47-12.73-14.21-5.87,0,0-.49,3.04-2.12,2.97-1.56,0-11.03,0-13.72,0-2.69,0-6.29-4.6-7.92-3.54-1.63,1.06-2.05,3.18-5.3,3.18-2.97,0-15.41-3.82-14.42-15.13,3.89-11.1,16.9-5.02,20.58,.21-1.13,1.56-1.56,3.54,.57,5.94,3.68,4.24,15.77,1.06,11.6-11.17-3.32-9.4-16.76-14.35-26.23-8.56,2.97-6.79,3.11-18.53-6.51-24.75-9.76-6.36-26.16,.14-23.83,12.37,2.05,10.96,9.05,8.49,10.82,4.6,.57-1.27,.21-2.9-.49-4.17,6.15-4.17,12.23-2.9,14.64-.07,3.68,4.38,3.04,11.1,2.4,14.28-1.41,1.41-2.76,3.18-3.75,5.3-7.85,15.91,8.41,24.4,12.09,24.4-3.68,0-19.94,8.49-12.09,24.4,1.06,2.19,2.33,3.89,3.75,5.3,.64,3.18,1.27,9.9-2.4,14.28-2.47,2.9-8.49,4.1-14.64-.07,.78-1.2,1.13-2.83,.49-4.17-1.77-3.89-8.77-6.36-10.82,4.6-2.33,12.37,14.07,18.88,23.83,12.52Zm-14.78-102.18c-.85-.71-1.91-.92-2.69-.42,9.4-13.08,20.58-4.17,22.7,1.06s.92,10.54-.42,13.86c-.14,.14-.28,.28-.49,.35,3.75-21.85-13.79-18.74-19.09-14.85Zm38.54,24.68c-.57,.28-1.34,.78-2.05,1.34-4.6-6.72-14.42-8.63-19.3-5.59,5.73-7.14,19.59-4.31,21.35,4.24Zm-21.35,45.54c4.88,3.04,14.71,1.13,19.3-5.59,.71,.57,1.48,1.06,2.05,1.34-1.84,8.63-15.7,11.46-21.35,4.24Zm-19.94,20.93c.92,.49,1.84,.28,2.69-.42,5.3,3.89,22.77,6.93,19.16-14.92,.14,.14,.28,.28,.49,.35,1.34,3.32,2.62,8.7,.42,13.86-2.12,5.37-13.29,14.28-22.77,1.13Z" style="fill:#a8975f;"/><path d="M840,86.41c-.57-3.54-5.8-5.37-3.25-14.42,2.47-8.98,10.47-11.31,10.39-12.8,0-1.41-7.92-3.82-10.39-12.8-2.47-8.98,2.62-10.82,3.25-14.42,1.06-6.15-8.63-10.75-13.65,1.77-5.09,12.59,6.86,22.84,15.49,25.39-8.63,2.55-20.51,12.73-15.49,25.39,5.09,12.73,14.78,7.99,13.65,1.91Zm1.2-29.49c-.92-.64-6.36-4.24-7.57-10.11-1.48-6.72,.21-12.94,2.19-15.63,1.27-1.84,2.12-1.27,2.12-1.41l-.07-.07,.07,.07c.64,.92,.78,1.77-.07,2.9-.78,1.2-4.74,6.72-2.26,14.57,2.19,6.86,5.66,8.49,6.65,9.33,.85,.71-.14,.99-1.06,.35Zm-3.39,31.96q.07-.07,0,0c.07-.21-.78,.35-2.05-1.48-1.84-2.69-3.68-8.91-2.19-15.63,1.27-5.94,6.65-9.48,7.57-10.11s1.91-.35,.99,.42c-.92,.78-4.45,2.47-6.65,9.33-2.4,7.78,1.48,13.36,2.26,14.57,.92,1.06,.78,1.91,.07,2.9,.07-.07,0,0,0,0Z" style="fill:#a8975f;"/><path d="M830.67,59.54c-4.1,1.13-6.08,4.95-7.57,6.15-1.48,1.2-6.43-3.46-7.85-6.43,1.48-2.9,6.43-7.57,7.85-6.43,1.48,1.2,3.54,4.95,7.57,6.15v.57Z" style="fill:#a8975f;"/></g><g><path d="M237.17,72.73c-.98,3.36-2.8,8.41-3.85,10.58-2.03,.42-7.5,1.68-12.82,1.68-16.75,0-25.29-11.14-25.29-23.4,0-14.29,10.86-24.17,26.56-24.17,6.03,0,10.93,1.26,13.24,1.61,.28,3.15,.77,7.36,1.33,10.86l-2.17,.49c-1.4-4.69-3.08-7.57-6.66-9.04-1.82-.84-4.69-1.33-7.36-1.33-11.56,0-17.66,8.55-17.66,20.11,0,13.52,7.01,22.21,18.36,22.21,7.15,0,10.65-3.29,14.22-10.3l2.1,.7Z" style="fill:#a8975f;"/><path d="M242.78,83.94v-1.96c4.48-.42,5.04-.77,5.04-5.4V43.02c0-4.27-.35-4.69-4.83-5.25v-1.82c3.78-.42,8.13-1.54,10.37-2.38v43.02c0,4.62,.42,4.98,4.97,5.4v1.96h-15.56Z" style="fill:#a8975f;"/><path d="M262.68,83.94v-1.96c4.41-.42,4.9-.77,4.9-5.54v-14.43c0-4.34-.21-4.62-4.41-5.33v-1.68c3.64-.63,6.94-1.54,9.95-2.8v24.24c0,4.76,.49,5.11,5.04,5.54v1.96h-15.49Zm7.29-38.61c-1.96,0-3.71-1.75-3.71-3.71,0-2.24,1.75-3.85,3.78-3.85s3.57,1.61,3.57,3.85c0,1.96-1.61,3.71-3.64,3.71Z" style="fill:#a8975f;"/><path d="M308.64,77.63c-3.08,4.06-7.78,7.15-11.98,7.15-8.9,0-14.15-7.22-14.15-14.71,0-5.54,2.38-10.16,7.08-13.73,3.71-2.87,7.92-3.99,10.65-3.99,3.15,0,5.46,.98,6.52,1.89,.98,.77,1.12,1.26,1.12,2.03,0,1.68-1.75,3.15-2.52,3.15-.35,0-.63-.14-1.33-.7-2.17-1.96-4.55-2.94-7.08-2.94-4.62,0-8.69,3.92-8.69,11.21-.07,9.74,6.59,12.96,10.65,12.96,2.94,0,5.33-.77,8.55-3.85l1.19,1.54Z" style="fill:#a8975f;"/><path d="M346.9,83.94c-3.78,0-7.92,.07-9.39,.14-.42-.49-11.42-13.52-11.84-13.94-.98-1.12-1.4-1.47-2.03-1.47-.28,0-.84,0-1.26,.14v7.78c0,4.69,.35,4.98,4.91,5.4v1.96h-15.49v-1.96c4.69-.42,5.04-.91,5.04-5.4V43.09c0-4.55-.49-4.69-4.83-5.33v-1.82c3.64-.35,7.85-1.4,10.37-2.38v33.42c2.1-.49,3.43-1.33,4.48-2.45,1.61-1.61,4.2-4.76,5.4-6.52,1.47-2.03,.91-2.59-2.45-2.87v-1.96l14.43-.63v1.89c-4.9,.77-6.31,1.33-9.32,4.48-1.33,1.4-4.48,4.98-5.96,6.8,1.4,1.96,8.55,10.09,10.86,12.54,3.36,3.36,4.34,3.57,7.08,3.71v1.96Z" style="fill:#a8975f;"/><path d="M378.64,83.87c-1.19,.63-2.31,.91-3.01,.91-4.48,0-6.87-2.73-6.87-8.34v-20.39h-4.83l-.28-.84,1.89-2.03h3.22v-5.89c1.33-1.4,3.36-3.22,4.69-4.62l1.05,.14c-.14,2.94-.21,7.01-.21,10.37h7.99c.63,.7,.42,2.24-.42,2.87h-7.57v17.94c0,5.68,2.24,6.73,4.06,6.73,1.68,0,3.29-.63,4.27-1.12l.63,1.82-4.62,2.45Z" style="fill:#a8975f;"/><path d="M401.62,52.34c8.76,0,15.27,6.66,15.27,15.7,0,11.35-8.41,16.75-15.27,16.75-9.67,0-15.55-7.78-15.55-15.62,0-11.42,8.9-16.82,15.55-16.82Zm-.84,2.38c-4.27,0-8.13,4.13-8.13,12.26,0,8.9,3.92,15.35,9.67,15.35,4.34,0,7.99-3.15,7.99-12.75,0-8.2-3.36-14.85-9.53-14.85Z" style="fill:#a8975f;"/><path d="M482.48,72.73c-.98,3.36-2.8,8.41-3.85,10.58-2.03,.42-7.5,1.68-12.82,1.68-16.75,0-25.29-11.14-25.29-23.4,0-14.29,10.86-24.17,26.56-24.17,6.03,0,10.93,1.26,13.24,1.61,.28,3.15,.77,7.36,1.33,10.86l-2.17,.49c-1.4-4.69-3.08-7.57-6.66-9.04-1.82-.84-4.69-1.33-7.36-1.33-11.56,0-17.66,8.55-17.66,20.11,0,13.52,7.01,22.21,18.36,22.21,7.15,0,10.65-3.29,14.22-10.3l2.1,.7Z" style="fill:#a8975f;"/><path d="M505.04,52.34c8.76,0,15.27,6.66,15.27,15.7,0,11.35-8.41,16.75-15.27,16.75-9.67,0-15.56-7.78-15.56-15.62,0-11.42,8.9-16.82,15.56-16.82Zm-.84,2.38c-4.27,0-8.13,4.13-8.13,12.26,0,8.9,3.92,15.35,9.67,15.35,4.34,0,7.99-3.15,7.99-12.75,0-8.2-3.36-14.85-9.53-14.85Z" style="fill:#a8975f;"/><path d="M545.68,83.94v-1.96c4.06-.42,4.48-.91,4.48-5.68v-11.56c0-4.9-1.75-8.2-6.38-8.2-2.87,0-5.61,1.68-7.78,3.64v16.4c0,4.83,.42,4.98,4.55,5.4v1.96h-15.13v-1.96c4.62-.49,5.04-.77,5.04-5.4v-14.43c0-4.55-.49-4.76-4.27-5.4v-1.82c3.43-.56,6.87-1.47,9.81-2.8v5.54c1.4-.98,2.94-2.03,4.76-3.22,1.96-1.26,3.78-2.1,5.82-2.1,5.61,0,9.11,4.13,9.11,10.93v13.31c0,4.76,.42,4.98,4.48,5.4v1.96h-14.5Z" style="fill:#a8975f;"/><path d="M578.26,83.87c-1.19,.63-2.31,.91-3.01,.91-4.48,0-6.87-2.73-6.87-8.34v-20.39h-4.83l-.28-.84,1.89-2.03h3.22v-5.89c1.33-1.4,3.36-3.22,4.69-4.62l1.05,.14c-.14,2.94-.21,7.01-.21,10.37h7.99c.63,.7,.42,2.24-.42,2.87h-7.57v17.94c0,5.68,2.24,6.73,4.06,6.73,1.68,0,3.29-.63,4.27-1.12l.63,1.82-4.62,2.45Z" style="fill:#a8975f;"/><path d="M586.46,83.94v-1.96c4.41-.42,4.91-.77,4.91-5.54v-14.43c0-4.34-.21-4.62-4.42-5.33v-1.68c3.64-.63,6.94-1.54,9.95-2.8v24.24c0,4.76,.49,5.11,5.04,5.54v1.96h-15.49Zm7.29-38.61c-1.96,0-3.71-1.75-3.71-3.71,0-2.24,1.75-3.85,3.78-3.85s3.57,1.61,3.57,3.85c0,1.96-1.61,3.71-3.64,3.71Z" style="fill:#a8975f;"/><path d="M626.32,83.94v-1.96c4.06-.42,4.48-.91,4.48-5.68v-11.56c0-4.9-1.75-8.2-6.38-8.2-2.87,0-5.61,1.68-7.78,3.64v16.4c0,4.83,.42,4.98,4.55,5.4v1.96h-15.13v-1.96c4.62-.49,5.04-.77,5.04-5.4v-14.43c0-4.55-.49-4.76-4.27-5.4v-1.82c3.43-.56,6.87-1.47,9.81-2.8v5.54c1.4-.98,2.94-2.03,4.77-3.22,1.96-1.26,3.78-2.1,5.82-2.1,5.61,0,9.11,4.13,9.11,10.93v13.31c0,4.76,.42,4.98,4.48,5.4v1.96h-14.5Z" style="fill:#a8975f;"/><path d="M679.09,82.33c-3.36,.49-7.15,1.4-10.72,2.45v-5.4c-3.78,3.15-6.87,5.4-10.72,5.4-4.69,0-8.76-2.87-8.76-10.51v-13.59c0-3.78-.56-4.2-2.31-4.55l-1.96-.35v-1.82c3.01-.14,7.64-.84,10.02-1.26-.21,2.24-.21,5.61-.21,10.23v9.53c0,6.17,3.22,7.92,6.38,7.92,2.59,0,5.19-1.12,7.57-3.36v-16.33c0-3.78-.84-4.27-3.22-4.62l-2.24-.28v-1.82c4.48-.21,9.39-.98,11-1.26v23.47c0,3.5,.56,3.99,3.22,4.13l1.96,.07v1.96Z" style="fill:#a8975f;"/><path d="M708.72,77.98c-4.48,5.61-9.39,6.8-11.63,6.8-8.55,0-13.73-7.01-13.73-15.06,0-4.76,1.68-9.18,4.55-12.26,2.94-3.29,6.8-5.11,10.44-5.11,6.1,0,10.72,5.25,10.72,10.86-.07,1.4-.28,2.03-1.4,2.31-1.4,.28-10.37,.91-18.71,1.19-.21,9.39,5.54,13.24,10.51,13.24,2.87,0,5.54-1.19,8.13-3.57l1.12,1.61Zm-12.05-22.98c-3.22,0-6.38,3.01-7.36,8.69,3.92,0,7.85,0,11.98-.21,1.26,0,1.68-.35,1.68-1.4,.07-3.71-2.38-7.08-6.31-7.08Z" style="fill:#a8975f;"/></g></svg>